<svg width="709" height="284" viewBox="0 0 709 284" fill="none" xmlns="http://www.w3.org/2000/svg">
<path d="M69.9 225.4C56.1 225.4 42.8 223.8 30 220.6C17.4 217.2 7.4 213 4.24683e-07 208L15.6 174.4C23 179 31.7 182.8 41.7 185.8C51.9 188.6 61.9 190 71.7 190C82.5 190 90.1 188.7 94.5 186.1C99.1 183.5 101.4 179.9 101.4 175.3C101.4 171.5 99.6 168.7 96 166.9C92.6 164.9 88 163.4 82.2 162.4C76.4 161.4 70 160.4 63 159.4C56.2 158.4 49.3 157.1 42.3 155.5C35.3 153.7 28.9 151.1 23.1 147.7C17.3 144.3 12.6 139.7 9 133.9C5.6 128.1 3.9 120.6 3.9 111.4C3.9 101.2 6.8 92.2 12.6 84.4C18.6 76.6 27.2 70.5 38.4 66.1C49.6 61.5 63 59.2 78.6 59.2C89.6 59.2 100.8 60.4 112.2 62.8C123.6 65.2 133.1 68.7 140.7 73.3L125.1 106.6C117.3 102 109.4 98.9 101.4 97.3C93.6 95.5 86 94.6 78.6 94.6C68.2 94.6 60.6 96 55.8 98.8C51 101.6 48.6 105.2 48.6 109.6C48.6 113.6 50.3 116.6 53.7 118.6C57.3 120.6 62 122.2 67.8 123.4C73.6 124.6 79.9 125.7 86.7 126.7C93.7 127.5 100.7 128.8 107.7 130.6C114.7 132.4 121 135 126.6 138.4C132.4 141.6 137.1 146.1 140.7 151.9C144.3 157.5 146.1 164.9 146.1 174.1C146.1 184.1 143.1 193 137.1 200.8C131.1 208.4 122.4 214.4 111 218.8C99.8 223.2 86.1 225.4 69.9 225.4ZM240.909 225.4C221.909 225.4 207.109 220.6 196.509 211C185.909 201.2 180.609 186.7 180.609 167.5V25.9H227.409V166.9C227.409 173.7 229.209 179 232.809 182.8C236.409 186.4 241.309 188.2 247.509 188.2C254.909 188.2 261.209 186.2 266.409 182.2L279.009 215.2C274.209 218.6 268.409 221.2 261.609 223C255.009 224.6 248.109 225.4 240.909 225.4ZM155.709 101.2V65.2H267.609V101.2H155.709ZM322.684 283.6C314.284 283.6 305.984 282.3 297.784 279.7C289.584 277.1 282.884 273.5 277.684 268.9L294.784 235.6C298.384 238.8 302.484 241.3 307.084 243.1C311.884 244.9 316.584 245.8 321.184 245.8C327.784 245.8 332.984 244.2 336.784 241C340.784 238 344.384 232.9 347.584 225.7L355.984 205.9L359.584 200.8L417.484 61.6H462.484L389.584 232.9C384.384 245.9 378.384 256.1 371.584 263.5C364.984 270.9 357.584 276.1 349.384 279.1C341.384 282.1 332.484 283.6 322.684 283.6ZM350.284 229.3L278.284 61.6H326.584L382.384 196.6L350.284 229.3ZM481.515 223V0.399987H528.315V223H481.515ZM571.684 223V0.399987H618.484V223H571.684ZM679.552 225.4C671.552 225.4 664.652 222.7 658.852 217.3C653.252 211.7 650.452 204.6 650.452 196C650.452 187.4 653.252 180.5 658.852 175.3C664.652 169.9 671.552 167.2 679.552 167.2C687.752 167.2 694.652 169.9 700.252 175.3C705.852 180.5 708.652 187.4 708.652 196C708.652 204.6 705.852 211.7 700.252 217.3C694.652 222.7 687.752 225.4 679.552 225.4Z" fill="white"/>
</svg>
