<svg width="756" height="127" viewBox="0 0 756 127" fill="none" xmlns="http://www.w3.org/2000/svg">
<path d="M14.36 48.32C11.5867 48.32 8.96267 47.936 6.488 47.168C4.01333 46.3573 2.072 45.3547 0.664 44.16L2.712 40.576C4.07733 41.6 5.82667 42.496 7.96 43.264C10.0933 43.9893 12.3333 44.352 14.68 44.352C17.88 44.352 20.184 43.8613 21.592 42.88C23 41.856 23.704 40.512 23.704 38.848C23.704 37.6107 23.2987 36.6507 22.488 35.968C21.72 35.2427 20.696 34.7093 19.416 34.368C18.136 33.984 16.7067 33.664 15.128 33.408C13.5493 33.152 11.9707 32.8533 10.392 32.512C8.856 32.1707 7.448 31.68 6.168 31.04C4.888 30.3573 3.84267 29.44 3.032 28.288C2.264 27.136 1.88 25.6 1.88 23.68C1.88 21.8453 2.392 20.2027 3.416 18.752C4.44 17.3013 5.93333 16.1707 7.896 15.36C9.90133 14.5067 12.3333 14.08 15.192 14.08C17.368 14.08 19.544 14.3787 21.72 14.976C23.896 15.5307 25.688 16.2773 27.096 17.216L25.112 20.864C23.6187 19.84 22.0187 19.1147 20.312 18.688C18.6053 18.2187 16.8987 17.984 15.192 17.984C12.1627 17.984 9.92267 18.5173 8.472 19.584C7.064 20.608 6.36 21.9307 6.36 23.552C6.36 24.832 6.744 25.8347 7.512 26.56C8.32267 27.2853 9.368 27.8613 10.648 28.288C11.9707 28.672 13.4 28.992 14.936 29.248C16.5147 29.504 18.072 29.824 19.608 30.208C21.1867 30.5493 22.616 31.04 23.896 31.68C25.2187 32.2773 26.264 33.152 27.032 34.304C27.8427 35.4133 28.248 36.8853 28.248 38.72C28.248 40.6827 27.6933 42.3893 26.584 43.84C25.5173 45.248 23.9387 46.3573 21.848 47.168C19.8 47.936 17.304 48.32 14.36 48.32ZM50.282 48.32C47.0393 48.32 44.1167 47.5947 41.514 46.144C38.954 44.6507 36.9273 42.624 35.434 40.064C33.9407 37.4613 33.194 34.496 33.194 31.168C33.194 27.7973 33.9407 24.832 35.434 22.272C36.9273 19.712 38.954 17.7067 41.514 16.256C44.074 14.8053 46.9967 14.08 50.282 14.08C53.61 14.08 56.554 14.8053 59.114 16.256C61.7167 17.7067 63.7433 19.712 65.194 22.272C66.6873 24.832 67.434 27.7973 67.434 31.168C67.434 34.496 66.6873 37.4613 65.194 40.064C63.7433 42.624 61.7167 44.6507 59.114 46.144C56.5113 47.5947 53.5673 48.32 50.282 48.32ZM50.282 44.288C52.714 44.288 54.8687 43.7547 56.746 42.688C58.6233 41.5787 60.0953 40.0427 61.162 38.08C62.2713 36.0747 62.826 33.7707 62.826 31.168C62.826 28.5227 62.2713 26.2187 61.162 24.256C60.0953 22.2933 58.6233 20.7787 56.746 19.712C54.8687 18.6027 52.7353 18.048 50.346 18.048C47.9567 18.048 45.8233 18.6027 43.946 19.712C42.0687 20.7787 40.5753 22.2933 39.466 24.256C38.3567 26.2187 37.802 28.5227 37.802 31.168C37.802 33.7707 38.3567 36.0747 39.466 38.08C40.5753 40.0427 42.0687 41.5787 43.946 42.688C45.8233 43.7547 47.9353 44.288 50.282 44.288ZM90.663 48.32C87.335 48.32 84.3483 47.5947 81.703 46.144C79.1003 44.6507 77.0523 42.624 75.559 40.064C74.0657 37.4613 73.319 34.496 73.319 31.168C73.319 27.7973 74.0657 24.832 75.559 22.272C77.0523 19.712 79.1003 17.7067 81.703 16.256C84.3483 14.8053 87.335 14.08 90.663 14.08C93.5217 14.08 96.103 14.6347 98.407 15.744C100.711 16.8533 102.524 18.5173 103.847 20.736L100.455 23.04C99.303 21.3333 97.8737 20.0747 96.167 19.264C94.4603 18.4533 92.6043 18.048 90.599 18.048C88.2097 18.048 86.055 18.6027 84.135 19.712C82.215 20.7787 80.7003 22.2933 79.591 24.256C78.4817 26.2187 77.927 28.5227 77.927 31.168C77.927 33.8133 78.4817 36.1173 79.591 38.08C80.7003 40.0427 82.215 41.5787 84.135 42.688C86.055 43.7547 88.2097 44.288 90.599 44.288C92.6043 44.288 94.4603 43.8827 96.167 43.072C97.8737 42.2613 99.303 41.024 100.455 39.36L103.847 41.664C102.524 43.84 100.711 45.504 98.407 46.656C96.103 47.7653 93.5217 48.32 90.663 48.32ZM112.274 48V14.4H116.818V48H112.274ZM114.578 6.976C113.639 6.976 112.85 6.656 112.21 6.016C111.57 5.376 111.25 4.608 111.25 3.712C111.25 2.816 111.57 2.06933 112.21 1.472C112.85 0.831997 113.639 0.511997 114.578 0.511997C115.516 0.511997 116.306 0.810664 116.946 1.408C117.586 2.00533 117.906 2.752 117.906 3.648C117.906 4.58667 117.586 5.376 116.946 6.016C116.348 6.656 115.559 6.976 114.578 6.976ZM150.517 48V40.576L150.325 39.36V26.944C150.325 24.0853 149.514 21.888 147.893 20.352C146.314 18.816 143.946 18.048 140.789 18.048C138.613 18.048 136.544 18.4107 134.581 19.136C132.618 19.8613 130.954 20.8213 129.589 22.016L127.541 18.624C129.248 17.1733 131.296 16.064 133.685 15.296C136.074 14.4853 138.592 14.08 141.237 14.08C145.589 14.08 148.938 15.168 151.285 17.344C153.674 19.4773 154.869 22.7413 154.869 27.136V48H150.517ZM138.933 48.32C136.416 48.32 134.218 47.9147 132.341 47.104C130.506 46.2507 129.098 45.0987 128.117 43.648C127.136 42.1547 126.645 40.448 126.645 38.528C126.645 36.7787 127.05 35.2 127.861 33.792C128.714 32.3413 130.08 31.1893 131.957 30.336C133.877 29.44 136.437 28.992 139.637 28.992H151.221V32.384H139.765C136.522 32.384 134.261 32.96 132.981 34.112C131.744 35.264 131.125 36.6933 131.125 38.4C131.125 40.32 131.872 41.856 133.365 43.008C134.858 44.16 136.949 44.736 139.637 44.736C142.197 44.736 144.394 44.16 146.229 43.008C148.106 41.8133 149.472 40.1067 150.325 37.888L151.349 41.024C150.496 43.2427 149.002 45.0133 146.869 46.336C144.778 47.6587 142.133 48.32 138.933 48.32ZM167.211 48V0.511997H171.755V48H167.211ZM243.133 14.08C245.863 14.08 248.231 14.6133 250.237 15.68C252.285 16.704 253.863 18.2827 254.973 20.416C256.125 22.5493 256.701 25.2373 256.701 28.48V48H252.157V28.928C252.157 25.3867 251.303 22.72 249.597 20.928C247.933 19.0933 245.565 18.176 242.493 18.176C240.189 18.176 238.183 18.6667 236.477 19.648C234.813 20.5867 233.511 21.9733 232.573 23.808C231.677 25.6 231.229 27.776 231.229 30.336V48H226.685V28.928C226.685 25.3867 225.831 22.72 224.125 20.928C222.418 19.0933 220.029 18.176 216.957 18.176C214.695 18.176 212.711 18.6667 211.005 19.648C209.298 20.5867 207.975 21.9733 207.037 23.808C206.141 25.6 205.693 27.776 205.693 30.336V48H201.149V14.4H205.501V23.488L204.797 21.888C205.821 19.456 207.463 17.5573 209.725 16.192C212.029 14.784 214.738 14.08 217.853 14.08C221.138 14.08 223.933 14.912 226.237 16.576C228.541 18.1973 230.034 20.6507 230.717 23.936L228.925 23.232C229.906 20.5013 231.634 18.304 234.109 16.64C236.626 14.9333 239.634 14.08 243.133 14.08ZM283.296 48.32C279.797 48.32 276.725 47.5947 274.08 46.144C271.434 44.6507 269.365 42.624 267.872 40.064C266.378 37.4613 265.632 34.496 265.632 31.168C265.632 27.84 266.336 24.896 267.744 22.336C269.194 19.776 271.157 17.7707 273.632 16.32C276.149 14.8267 278.965 14.08 282.08 14.08C285.237 14.08 288.032 14.8053 290.464 16.256C292.938 17.664 294.88 19.6693 296.288 22.272C297.696 24.832 298.4 27.7973 298.4 31.168C298.4 31.3813 298.378 31.616 298.336 31.872C298.336 32.0853 298.336 32.32 298.336 32.576H269.088V29.184H295.904L294.112 30.528C294.112 28.096 293.578 25.9413 292.512 24.064C291.488 22.144 290.08 20.6507 288.288 19.584C286.496 18.5173 284.426 17.984 282.08 17.984C279.776 17.984 277.706 18.5173 275.872 19.584C274.037 20.6507 272.608 22.144 271.584 24.064C270.56 25.984 270.048 28.1813 270.048 30.656V31.36C270.048 33.92 270.602 36.1813 271.712 38.144C272.864 40.064 274.442 41.5787 276.448 42.688C278.496 43.7547 280.821 44.288 283.424 44.288C285.472 44.288 287.37 43.9253 289.12 43.2C290.912 42.4747 292.448 41.3653 293.728 39.872L296.288 42.816C294.794 44.608 292.917 45.9733 290.656 46.912C288.437 47.8507 285.984 48.32 283.296 48.32ZM321.025 48.32C317.825 48.32 314.945 47.5947 312.385 46.144C309.867 44.6933 307.883 42.688 306.433 40.128C304.982 37.5253 304.257 34.5387 304.257 31.168C304.257 27.7547 304.982 24.768 306.433 22.208C307.883 19.648 309.867 17.664 312.385 16.256C314.945 14.8053 317.825 14.08 321.025 14.08C323.969 14.08 326.593 14.7413 328.897 16.064C331.243 17.3867 333.099 19.328 334.465 21.888C335.873 24.4053 336.576 27.4987 336.576 31.168C336.576 34.7947 335.894 37.888 334.529 40.448C333.163 43.008 331.307 44.9707 328.961 46.336C326.657 47.6587 324.011 48.32 321.025 48.32ZM321.345 44.288C323.734 44.288 325.867 43.7547 327.745 42.688C329.665 41.5787 331.158 40.0427 332.225 38.08C333.334 36.0747 333.889 33.7707 333.889 31.168C333.889 28.5227 333.334 26.2187 332.225 24.256C331.158 22.2933 329.665 20.7787 327.745 19.712C325.867 18.6027 323.734 18.048 321.345 18.048C318.998 18.048 316.886 18.6027 315.009 19.712C313.131 20.7787 311.638 22.2933 310.529 24.256C309.419 26.2187 308.865 28.5227 308.865 31.168C308.865 33.7707 309.419 36.0747 310.529 38.08C311.638 40.0427 313.131 41.5787 315.009 42.688C316.886 43.7547 318.998 44.288 321.345 44.288ZM334.017 48V37.888L334.465 31.104L333.825 24.32V0.511997H338.369V48H334.017ZM351.024 48V14.4H355.568V48H351.024ZM353.328 6.976C352.389 6.976 351.6 6.656 350.96 6.016C350.32 5.376 350 4.608 350 3.712C350 2.816 350.32 2.06933 350.96 1.472C351.6 0.831997 352.389 0.511997 353.328 0.511997C354.266 0.511997 355.056 0.810664 355.696 1.408C356.336 2.00533 356.656 2.752 356.656 3.648C356.656 4.58667 356.336 5.376 355.696 6.016C355.098 6.656 354.309 6.976 353.328 6.976ZM389.267 48V40.576L389.075 39.36V26.944C389.075 24.0853 388.264 21.888 386.643 20.352C385.064 18.816 382.696 18.048 379.539 18.048C377.363 18.048 375.294 18.4107 373.331 19.136C371.368 19.8613 369.704 20.8213 368.339 22.016L366.291 18.624C367.998 17.1733 370.046 16.064 372.435 15.296C374.824 14.4853 377.342 14.08 379.987 14.08C384.339 14.08 387.688 15.168 390.035 17.344C392.424 19.4773 393.619 22.7413 393.619 27.136V48H389.267ZM377.683 48.32C375.166 48.32 372.968 47.9147 371.091 47.104C369.256 46.2507 367.848 45.0987 366.867 43.648C365.886 42.1547 365.395 40.448 365.395 38.528C365.395 36.7787 365.8 35.2 366.611 33.792C367.464 32.3413 368.83 31.1893 370.707 30.336C372.627 29.44 375.187 28.992 378.387 28.992H389.971V32.384H378.515C375.272 32.384 373.011 32.96 371.731 34.112C370.494 35.264 369.875 36.6933 369.875 38.4C369.875 40.32 370.622 41.856 372.115 43.008C373.608 44.16 375.699 44.736 378.387 44.736C380.947 44.736 383.144 44.16 384.979 43.008C386.856 41.8133 388.222 40.1067 389.075 37.888L390.099 41.024C389.246 43.2427 387.752 45.0133 385.619 46.336C383.528 47.6587 380.883 48.32 377.683 48.32ZM436.983 48.32C433.484 48.32 430.412 47.5947 427.767 46.144C425.122 44.6507 423.052 42.624 421.559 40.064C420.066 37.4613 419.319 34.496 419.319 31.168C419.319 27.84 420.023 24.896 421.431 22.336C422.882 19.776 424.844 17.7707 427.319 16.32C429.836 14.8267 432.652 14.08 435.767 14.08C438.924 14.08 441.719 14.8053 444.151 16.256C446.626 17.664 448.567 19.6693 449.975 22.272C451.383 24.832 452.087 27.7973 452.087 31.168C452.087 31.3813 452.066 31.616 452.023 31.872C452.023 32.0853 452.023 32.32 452.023 32.576H422.775V29.184H449.591L447.799 30.528C447.799 28.096 447.266 25.9413 446.199 24.064C445.175 22.144 443.767 20.6507 441.975 19.584C440.183 18.5173 438.114 17.984 435.767 17.984C433.463 17.984 431.394 18.5173 429.559 19.584C427.724 20.6507 426.295 22.144 425.271 24.064C424.247 25.984 423.735 28.1813 423.735 30.656V31.36C423.735 33.92 424.29 36.1813 425.399 38.144C426.551 40.064 428.13 41.5787 430.135 42.688C432.183 43.7547 434.508 44.288 437.111 44.288C439.159 44.288 441.058 43.9253 442.807 43.2C444.599 42.4747 446.135 41.3653 447.415 39.872L449.975 42.816C448.482 44.608 446.604 45.9733 444.343 46.912C442.124 47.8507 439.671 48.32 436.983 48.32ZM455.279 48L469.487 29.568L469.423 31.808L455.919 14.4H461.039L472.111 28.8L470.191 28.736L481.263 14.4H486.255L472.623 32L472.687 29.568L487.023 48H481.839L470.127 32.64L471.919 32.896L460.399 48H455.279ZM507.351 48.32C504.023 48.32 501.036 47.5947 498.391 46.144C495.788 44.6507 493.74 42.624 492.247 40.064C490.753 37.4613 490.007 34.496 490.007 31.168C490.007 27.7973 490.753 24.832 492.247 22.272C493.74 19.712 495.788 17.7067 498.391 16.256C501.036 14.8053 504.023 14.08 507.351 14.08C510.209 14.08 512.791 14.6347 515.095 15.744C517.399 16.8533 519.212 18.5173 520.535 20.736L517.143 23.04C515.991 21.3333 514.561 20.0747 512.855 19.264C511.148 18.4533 509.292 18.048 507.287 18.048C504.897 18.048 502.743 18.6027 500.823 19.712C498.903 20.7787 497.388 22.2933 496.279 24.256C495.169 26.2187 494.615 28.5227 494.615 31.168C494.615 33.8133 495.169 36.1173 496.279 38.08C497.388 40.0427 498.903 41.5787 500.823 42.688C502.743 43.7547 504.897 44.288 507.287 44.288C509.292 44.288 511.148 43.8827 512.855 43.072C514.561 42.2613 515.991 41.024 517.143 39.36L520.535 41.664C519.212 43.84 517.399 45.504 515.095 46.656C512.791 47.7653 510.209 48.32 507.351 48.32ZM528.961 48V0.511997H533.505V48H528.961ZM560.037 48.32C557.178 48.32 554.682 47.7867 552.549 46.72C550.415 45.6533 548.751 44.0533 547.557 41.92C546.405 39.7867 545.829 37.12 545.829 33.92V14.4H550.373V33.408C550.373 36.992 551.247 39.7013 552.997 41.536C554.789 43.328 557.285 44.224 560.485 44.224C562.831 44.224 564.858 43.7547 566.565 42.816C568.314 41.8347 569.637 40.4267 570.533 38.592C571.471 36.7573 571.941 34.56 571.941 32V14.4H576.485V48H572.132V38.784L572.837 40.448C571.77 42.9227 570.106 44.864 567.845 46.272C565.626 47.6373 563.023 48.32 560.037 48.32ZM598.173 48.32C595.399 48.32 592.775 47.936 590.301 47.168C587.826 46.3573 585.885 45.3547 584.477 44.16L586.525 40.576C587.89 41.6 589.639 42.496 591.773 43.264C593.906 43.9893 596.146 44.352 598.493 44.352C601.693 44.352 603.997 43.8613 605.405 42.88C606.813 41.856 607.517 40.512 607.517 38.848C607.517 37.6107 607.111 36.6507 606.301 35.968C605.533 35.2427 604.509 34.7093 603.229 34.368C601.949 33.984 600.519 33.664 598.941 33.408C597.362 33.152 595.783 32.8533 594.205 32.512C592.669 32.1707 591.261 31.68 589.981 31.04C588.701 30.3573 587.655 29.44 586.845 28.288C586.077 27.136 585.693 25.6 585.693 23.68C585.693 21.8453 586.205 20.2027 587.229 18.752C588.253 17.3013 589.746 16.1707 591.709 15.36C593.714 14.5067 596.146 14.08 599.005 14.08C601.181 14.08 603.357 14.3787 605.533 14.976C607.709 15.5307 609.501 16.2773 610.909 17.216L608.925 20.864C607.431 19.84 605.831 19.1147 604.125 18.688C602.418 18.2187 600.711 17.984 599.005 17.984C595.975 17.984 593.735 18.5173 592.285 19.584C590.877 20.608 590.173 21.9307 590.173 23.552C590.173 24.832 590.557 25.8347 591.325 26.56C592.135 27.2853 593.181 27.8613 594.461 28.288C595.783 28.672 597.213 28.992 598.749 29.248C600.327 29.504 601.885 29.824 603.421 30.208C604.999 30.5493 606.429 31.04 607.709 31.68C609.031 32.2773 610.077 33.152 610.845 34.304C611.655 35.4133 612.061 36.8853 612.061 38.72C612.061 40.6827 611.506 42.3893 610.397 43.84C609.33 45.248 607.751 46.3573 605.661 47.168C603.613 47.936 601.117 48.32 598.173 48.32ZM620.399 48V14.4H624.943V48H620.399ZM622.703 6.976C621.764 6.976 620.975 6.656 620.335 6.016C619.695 5.376 619.375 4.608 619.375 3.712C619.375 2.816 619.695 2.06933 620.335 1.472C620.975 0.831997 621.764 0.511997 622.703 0.511997C623.641 0.511997 624.431 0.810664 625.071 1.408C625.711 2.00533 626.031 2.752 626.031 3.648C626.031 4.58667 625.711 5.376 625.071 6.016C624.473 6.656 623.684 6.976 622.703 6.976ZM646.226 48L631.314 14.4H636.05L649.746 45.568H647.506L661.394 14.4H665.874L650.898 48H646.226ZM685.608 48.32C682.109 48.32 679.037 47.5947 676.392 46.144C673.747 44.6507 671.677 42.624 670.184 40.064C668.691 37.4613 667.944 34.496 667.944 31.168C667.944 27.84 668.648 24.896 670.056 22.336C671.507 19.776 673.469 17.7707 675.944 16.32C678.461 14.8267 681.277 14.08 684.392 14.08C687.549 14.08 690.344 14.8053 692.776 16.256C695.251 17.664 697.192 19.6693 698.6 22.272C700.008 24.832 700.712 27.7973 700.712 31.168C700.712 31.3813 700.691 31.616 700.648 31.872C700.648 32.0853 700.648 32.32 700.648 32.576H671.4V29.184H698.216L696.424 30.528C696.424 28.096 695.891 25.9413 694.824 24.064C693.8 22.144 692.392 20.6507 690.6 19.584C688.808 18.5173 686.739 17.984 684.392 17.984C682.088 17.984 680.019 18.5173 678.184 19.584C676.349 20.6507 674.92 22.144 673.896 24.064C672.872 25.984 672.36 28.1813 672.36 30.656V31.36C672.36 33.92 672.915 36.1813 674.024 38.144C675.176 40.064 676.755 41.5787 678.76 42.688C680.808 43.7547 683.133 44.288 685.736 44.288C687.784 44.288 689.683 43.9253 691.432 43.2C693.224 42.4747 694.76 41.3653 696.04 39.872L698.6 42.816C697.107 44.608 695.229 45.9733 692.968 46.912C690.749 47.8507 688.296 48.32 685.608 48.32ZM709.961 48V0.511997H714.505V48H709.961ZM727.405 60.736C725.826 60.736 724.311 60.48 722.861 59.968C721.453 59.456 720.236 58.688 719.212 57.664L721.325 54.272C722.178 55.0827 723.095 55.7013 724.077 56.128C725.101 56.5973 726.231 56.832 727.469 56.832C728.962 56.832 730.242 56.4053 731.309 55.552C732.418 54.7413 733.463 53.2907 734.445 51.2L736.621 46.272L737.133 45.568L750.957 14.4H755.437L738.605 52.032C737.666 54.208 736.621 55.936 735.469 57.216C734.359 58.496 733.143 59.392 731.821 59.904C730.498 60.4587 729.026 60.736 727.405 60.736ZM736.365 48.96L720.877 14.4H725.613L739.309 45.248L736.365 48.96ZM6.104 126V88.176C6.104 85.1893 6.97867 82.7787 8.728 80.944C10.4773 79.1093 12.9947 78.192 16.28 78.192C17.56 78.192 18.7973 78.3627 19.992 78.704C21.1867 79.0453 22.1893 79.5787 23 80.304L21.464 83.696C20.824 83.1413 20.0773 82.736 19.224 82.48C18.3707 82.1813 17.4533 82.032 16.472 82.032C14.552 82.032 13.08 82.5653 12.056 83.632C11.032 84.6987 10.52 86.2773 10.52 88.368V93.488L10.648 95.6V126H6.104ZM0.0880001 96.176V92.4H20.888V96.176H0.0880001ZM40.157 126.32C36.9143 126.32 33.9917 125.595 31.389 124.144C28.829 122.651 26.8023 120.624 25.309 118.064C23.8157 115.461 23.069 112.496 23.069 109.168C23.069 105.797 23.8157 102.832 25.309 100.272C26.8023 97.712 28.829 95.7067 31.389 94.256C33.949 92.8053 36.8717 92.08 40.157 92.08C43.485 92.08 46.429 92.8053 48.989 94.256C51.5917 95.7067 53.6183 97.712 55.069 100.272C56.5623 102.832 57.309 105.797 57.309 109.168C57.309 112.496 56.5623 115.461 55.069 118.064C53.6183 120.624 51.5917 122.651 48.989 124.144C46.3863 125.595 43.4423 126.32 40.157 126.32ZM40.157 122.288C42.589 122.288 44.7437 121.755 46.621 120.688C48.4983 119.579 49.9703 118.043 51.037 116.08C52.1463 114.075 52.701 111.771 52.701 109.168C52.701 106.523 52.1463 104.219 51.037 102.256C49.9703 100.293 48.4983 98.7787 46.621 97.712C44.7437 96.6027 42.6103 96.048 40.221 96.048C37.8317 96.048 35.6983 96.6027 33.821 97.712C31.9437 98.7787 30.4503 100.293 29.341 102.256C28.2317 104.219 27.677 106.523 27.677 109.168C27.677 111.771 28.2317 114.075 29.341 116.08C30.4503 118.043 31.9437 119.579 33.821 120.688C35.6983 121.755 37.8103 122.288 40.157 122.288ZM66.586 126V92.4H70.938V101.552L70.49 99.952C71.4287 97.392 73.0073 95.4507 75.226 94.128C77.4447 92.7627 80.1967 92.08 83.482 92.08V96.496C83.3113 96.496 83.1407 96.496 82.97 96.496C82.7993 96.4533 82.6287 96.432 82.458 96.432C78.9167 96.432 76.1433 97.52 74.138 99.696C72.1327 101.829 71.13 104.88 71.13 108.848V126H66.586ZM109.792 126V88.176C109.792 85.1893 110.666 82.7787 112.416 80.944C114.165 79.1093 116.682 78.192 119.968 78.192C121.248 78.192 122.485 78.3627 123.68 78.704C124.874 79.0453 125.877 79.5787 126.688 80.304L125.152 83.696C124.512 83.1413 123.765 82.736 122.912 82.48C122.058 82.1813 121.141 82.032 120.16 82.032C118.24 82.032 116.768 82.5653 115.744 83.632C114.72 84.6987 114.208 86.2773 114.208 88.368V93.488L114.336 95.6V126H109.792ZM103.776 96.176V92.4H124.576V96.176H103.776ZM151.142 126V118.576L150.95 117.36V104.944C150.95 102.085 150.139 99.888 148.518 98.352C146.939 96.816 144.571 96.048 141.414 96.048C139.238 96.048 137.169 96.4107 135.206 97.136C133.243 97.8613 131.579 98.8213 130.214 100.016L128.166 96.624C129.873 95.1733 131.921 94.064 134.31 93.296C136.699 92.4853 139.217 92.08 141.862 92.08C146.214 92.08 149.563 93.168 151.91 95.344C154.299 97.4773 155.494 100.741 155.494 105.136V126H151.142ZM139.558 126.32C137.041 126.32 134.843 125.915 132.966 125.104C131.131 124.251 129.723 123.099 128.742 121.648C127.761 120.155 127.27 118.448 127.27 116.528C127.27 114.779 127.675 113.2 128.486 111.792C129.339 110.341 130.705 109.189 132.582 108.336C134.502 107.44 137.062 106.992 140.262 106.992H151.846V110.384H140.39C137.147 110.384 134.886 110.96 133.606 112.112C132.369 113.264 131.75 114.693 131.75 116.4C131.75 118.32 132.497 119.856 133.99 121.008C135.483 122.16 137.574 122.736 140.262 122.736C142.822 122.736 145.019 122.16 146.854 121.008C148.731 119.813 150.097 118.107 150.95 115.888L151.974 119.024C151.121 121.243 149.627 123.013 147.494 124.336C145.403 125.659 142.758 126.32 139.558 126.32ZM176.86 126.32C174.087 126.32 171.463 125.936 168.988 125.168C166.513 124.357 164.572 123.355 163.164 122.16L165.212 118.576C166.577 119.6 168.327 120.496 170.46 121.264C172.593 121.989 174.833 122.352 177.18 122.352C180.38 122.352 182.684 121.861 184.092 120.88C185.5 119.856 186.204 118.512 186.204 116.848C186.204 115.611 185.799 114.651 184.988 113.968C184.22 113.243 183.196 112.709 181.916 112.368C180.636 111.984 179.207 111.664 177.628 111.408C176.049 111.152 174.471 110.853 172.892 110.512C171.356 110.171 169.948 109.68 168.668 109.04C167.388 108.357 166.343 107.44 165.532 106.288C164.764 105.136 164.38 103.6 164.38 101.68C164.38 99.8453 164.892 98.2027 165.916 96.752C166.94 95.3013 168.433 94.1707 170.396 93.36C172.401 92.5067 174.833 92.08 177.692 92.08C179.868 92.08 182.044 92.3787 184.22 92.976C186.396 93.5307 188.188 94.2773 189.596 95.216L187.612 98.864C186.119 97.84 184.519 97.1147 182.812 96.688C181.105 96.2187 179.399 95.984 177.692 95.984C174.663 95.984 172.423 96.5173 170.972 97.584C169.564 98.608 168.86 99.9307 168.86 101.552C168.86 102.832 169.244 103.835 170.012 104.56C170.823 105.285 171.868 105.861 173.148 106.288C174.471 106.672 175.9 106.992 177.436 107.248C179.015 107.504 180.572 107.824 182.108 108.208C183.687 108.549 185.116 109.04 186.396 109.68C187.719 110.277 188.764 111.152 189.532 112.304C190.343 113.413 190.748 114.885 190.748 116.72C190.748 118.683 190.193 120.389 189.084 121.84C188.017 123.248 186.439 124.357 184.348 125.168C182.3 125.936 179.804 126.32 176.86 126.32ZM216.238 92.08C218.969 92.08 221.358 92.6133 223.406 93.68C225.497 94.704 227.118 96.2827 228.27 98.416C229.465 100.549 230.062 103.237 230.062 106.48V126H225.518V106.928C225.518 103.387 224.622 100.72 222.83 98.928C221.081 97.0933 218.606 96.176 215.406 96.176C213.017 96.176 210.926 96.6667 209.134 97.648C207.385 98.5867 206.019 99.9733 205.038 101.808C204.099 103.6 203.63 105.776 203.63 108.336V126H199.086V78.512H203.63V101.616L202.734 99.888C203.801 97.456 205.507 95.5573 207.854 94.192C210.201 92.784 212.995 92.08 216.238 92.08ZM242.336 126V92.4H246.88V126H242.336ZM244.64 84.976C243.701 84.976 242.912 84.656 242.272 84.016C241.632 83.376 241.312 82.608 241.312 81.712C241.312 80.816 241.632 80.0693 242.272 79.472C242.912 78.832 243.701 78.512 244.64 78.512C245.579 78.512 246.368 78.8107 247.008 79.408C247.648 80.0053 247.968 80.752 247.968 81.648C247.968 82.5867 247.648 83.376 247.008 84.016C246.411 84.656 245.621 84.976 244.64 84.976ZM273.22 126.32C269.977 126.32 267.054 125.595 264.452 124.144C261.892 122.651 259.865 120.624 258.372 118.064C256.878 115.461 256.132 112.496 256.132 109.168C256.132 105.797 256.878 102.832 258.372 100.272C259.865 97.712 261.892 95.7067 264.452 94.256C267.012 92.8053 269.934 92.08 273.22 92.08C276.548 92.08 279.492 92.8053 282.052 94.256C284.654 95.7067 286.681 97.712 288.132 100.272C289.625 102.832 290.372 105.797 290.372 109.168C290.372 112.496 289.625 115.461 288.132 118.064C286.681 120.624 284.654 122.651 282.052 124.144C279.449 125.595 276.505 126.32 273.22 126.32ZM273.22 122.288C275.652 122.288 277.806 121.755 279.684 120.688C281.561 119.579 283.033 118.043 284.1 116.08C285.209 114.075 285.764 111.771 285.764 109.168C285.764 106.523 285.209 104.219 284.1 102.256C283.033 100.293 281.561 98.7787 279.684 97.712C277.806 96.6027 275.673 96.048 273.284 96.048C270.894 96.048 268.761 96.6027 266.884 97.712C265.006 98.7787 263.513 100.293 262.404 102.256C261.294 104.219 260.74 106.523 260.74 109.168C260.74 111.771 261.294 114.075 262.404 116.08C263.513 118.043 265.006 119.579 266.884 120.688C268.761 121.755 270.873 122.288 273.22 122.288ZM316.801 92.08C319.531 92.08 321.921 92.6133 323.969 93.68C326.059 94.704 327.681 96.2827 328.833 98.416C330.027 100.549 330.625 103.237 330.625 106.48V126H326.081V106.928C326.081 103.387 325.185 100.72 323.393 98.928C321.643 97.0933 319.169 96.176 315.969 96.176C313.579 96.176 311.489 96.6667 309.697 97.648C307.947 98.5867 306.582 99.9733 305.601 101.808C304.662 103.6 304.193 105.776 304.193 108.336V126H299.649V92.4H304.001V101.616L303.297 99.888C304.363 97.456 306.07 95.5573 308.417 94.192C310.763 92.784 313.558 92.08 316.801 92.08ZM373.921 126.32C370.422 126.32 367.35 125.595 364.705 124.144C362.059 122.651 359.99 120.624 358.497 118.064C357.003 115.461 356.257 112.496 356.257 109.168C356.257 105.84 356.961 102.896 358.369 100.336C359.819 97.776 361.782 95.7707 364.257 94.32C366.774 92.8267 369.59 92.08 372.705 92.08C375.862 92.08 378.657 92.8053 381.089 94.256C383.563 95.664 385.505 97.6693 386.913 100.272C388.321 102.832 389.025 105.797 389.025 109.168C389.025 109.381 389.003 109.616 388.961 109.872C388.961 110.085 388.961 110.32 388.961 110.576H359.713V107.184H386.529L384.737 108.528C384.737 106.096 384.203 103.941 383.137 102.064C382.113 100.144 380.705 98.6507 378.913 97.584C377.121 96.5173 375.051 95.984 372.705 95.984C370.401 95.984 368.331 96.5173 366.497 97.584C364.662 98.6507 363.233 100.144 362.209 102.064C361.185 103.984 360.673 106.181 360.673 108.656V109.36C360.673 111.92 361.227 114.181 362.337 116.144C363.489 118.064 365.067 119.579 367.073 120.688C369.121 121.755 371.446 122.288 374.049 122.288C376.097 122.288 377.995 121.925 379.745 121.2C381.537 120.475 383.073 119.365 384.353 117.872L386.913 120.816C385.419 122.608 383.542 123.973 381.281 124.912C379.062 125.851 376.609 126.32 373.921 126.32ZM415.426 92.08C418.156 92.08 420.546 92.6133 422.594 93.68C424.684 94.704 426.306 96.2827 427.458 98.416C428.652 100.549 429.25 103.237 429.25 106.48V126H424.706V106.928C424.706 103.387 423.81 100.72 422.018 98.928C420.268 97.0933 417.794 96.176 414.594 96.176C412.204 96.176 410.114 96.6667 408.322 97.648C406.572 98.5867 405.207 99.9733 404.226 101.808C403.287 103.6 402.818 105.776 402.818 108.336V126H398.274V92.4H402.626V101.616L401.922 99.888C402.988 97.456 404.695 95.5573 407.042 94.192C409.388 92.784 412.183 92.08 415.426 92.08ZM452.148 126.32C448.99 126.32 446.558 125.467 444.852 123.76C443.145 122.053 442.292 119.643 442.292 116.528V84.976H446.836V116.272C446.836 118.235 447.326 119.749 448.308 120.816C449.332 121.883 450.782 122.416 452.66 122.416C454.665 122.416 456.329 121.84 457.652 120.688L459.252 123.952C458.356 124.763 457.268 125.36 455.988 125.744C454.75 126.128 453.47 126.32 452.148 126.32ZM436.276 96.176V92.4H457.076V96.176H436.276ZM484.676 92.08C487.406 92.08 489.796 92.6133 491.844 93.68C493.934 94.704 495.556 96.2827 496.708 98.416C497.902 100.549 498.5 103.237 498.5 106.48V126H493.956V106.928C493.956 103.387 493.06 100.72 491.268 98.928C489.518 97.0933 487.044 96.176 483.844 96.176C481.454 96.176 479.364 96.6667 477.572 97.648C475.822 98.5867 474.457 99.9733 473.476 101.808C472.537 103.6 472.068 105.776 472.068 108.336V126H467.524V78.512H472.068V101.616L471.172 99.888C472.238 97.456 473.945 95.5573 476.292 94.192C478.638 92.784 481.433 92.08 484.676 92.08ZM524.662 126.32C521.803 126.32 519.307 125.787 517.174 124.72C515.04 123.653 513.376 122.053 512.182 119.92C511.03 117.787 510.454 115.12 510.454 111.92V92.4H514.998V111.408C514.998 114.992 515.872 117.701 517.622 119.536C519.414 121.328 521.91 122.224 525.11 122.224C527.456 122.224 529.483 121.755 531.19 120.816C532.939 119.835 534.262 118.427 535.158 116.592C536.096 114.757 536.566 112.56 536.566 110V92.4H541.11V126H536.757V116.784L537.462 118.448C536.395 120.923 534.731 122.864 532.47 124.272C530.251 125.637 527.648 126.32 524.662 126.32ZM562.798 126.32C560.024 126.32 557.4 125.936 554.926 125.168C552.451 124.357 550.51 123.355 549.102 122.16L551.15 118.576C552.515 119.6 554.264 120.496 556.398 121.264C558.531 121.989 560.771 122.352 563.118 122.352C566.318 122.352 568.622 121.861 570.03 120.88C571.438 119.856 572.142 118.512 572.142 116.848C572.142 115.611 571.736 114.651 570.926 113.968C570.158 113.243 569.134 112.709 567.854 112.368C566.574 111.984 565.144 111.664 563.566 111.408C561.987 111.152 560.408 110.853 558.83 110.512C557.294 110.171 555.886 109.68 554.606 109.04C553.326 108.357 552.28 107.44 551.47 106.288C550.702 105.136 550.318 103.6 550.318 101.68C550.318 99.8453 550.83 98.2027 551.854 96.752C552.878 95.3013 554.371 94.1707 556.334 93.36C558.339 92.5067 560.771 92.08 563.63 92.08C565.806 92.08 567.982 92.3787 570.158 92.976C572.334 93.5307 574.126 94.2773 575.534 95.216L573.55 98.864C572.056 97.84 570.456 97.1147 568.75 96.688C567.043 96.2187 565.336 95.984 563.63 95.984C560.6 95.984 558.36 96.5173 556.91 97.584C555.502 98.608 554.798 99.9307 554.798 101.552C554.798 102.832 555.182 103.835 555.95 104.56C556.76 105.285 557.806 105.861 559.086 106.288C560.408 106.672 561.838 106.992 563.374 107.248C564.952 107.504 566.51 107.824 568.046 108.208C569.624 108.549 571.054 109.04 572.334 109.68C573.656 110.277 574.702 111.152 575.47 112.304C576.28 113.413 576.686 114.885 576.686 116.72C576.686 118.683 576.131 120.389 575.022 121.84C573.955 123.248 572.376 124.357 570.286 125.168C568.238 125.936 565.742 126.32 562.798 126.32ZM585.024 126V92.4H589.568V126H585.024ZM587.328 84.976C586.389 84.976 585.6 84.656 584.96 84.016C584.32 83.376 584 82.608 584 81.712C584 80.816 584.32 80.0693 584.96 79.472C585.6 78.832 586.389 78.512 587.328 78.512C588.266 78.512 589.056 78.8107 589.696 79.408C590.336 80.0053 590.656 80.752 590.656 81.648C590.656 82.5867 590.336 83.376 589.696 84.016C589.098 84.656 588.309 84.976 587.328 84.976ZM623.267 126V118.576L623.075 117.36V104.944C623.075 102.085 622.264 99.888 620.643 98.352C619.064 96.816 616.696 96.048 613.539 96.048C611.363 96.048 609.294 96.4107 607.331 97.136C605.368 97.8613 603.704 98.8213 602.339 100.016L600.291 96.624C601.998 95.1733 604.046 94.064 606.435 93.296C608.824 92.4853 611.342 92.08 613.987 92.08C618.339 92.08 621.688 93.168 624.035 95.344C626.424 97.4773 627.619 100.741 627.619 105.136V126H623.267ZM611.683 126.32C609.166 126.32 606.968 125.915 605.091 125.104C603.256 124.251 601.848 123.099 600.867 121.648C599.886 120.155 599.395 118.448 599.395 116.528C599.395 114.779 599.8 113.2 600.611 111.792C601.464 110.341 602.83 109.189 604.707 108.336C606.627 107.44 609.187 106.992 612.387 106.992H623.971V110.384H612.515C609.272 110.384 607.011 110.96 605.731 112.112C604.494 113.264 603.875 114.693 603.875 116.4C603.875 118.32 604.622 119.856 606.115 121.008C607.608 122.16 609.699 122.736 612.387 122.736C614.947 122.736 617.144 122.16 618.979 121.008C620.856 119.813 622.222 118.107 623.075 115.888L624.099 119.024C623.246 121.243 621.752 123.013 619.619 124.336C617.528 125.659 614.883 126.32 611.683 126.32ZM648.985 126.32C646.212 126.32 643.588 125.936 641.113 125.168C638.638 124.357 636.697 123.355 635.289 122.16L637.337 118.576C638.702 119.6 640.452 120.496 642.585 121.264C644.718 121.989 646.958 122.352 649.305 122.352C652.505 122.352 654.809 121.861 656.217 120.88C657.625 119.856 658.329 118.512 658.329 116.848C658.329 115.611 657.924 114.651 657.113 113.968C656.345 113.243 655.321 112.709 654.041 112.368C652.761 111.984 651.332 111.664 649.753 111.408C648.174 111.152 646.596 110.853 645.017 110.512C643.481 110.171 642.073 109.68 640.793 109.04C639.513 108.357 638.468 107.44 637.657 106.288C636.889 105.136 636.505 103.6 636.505 101.68C636.505 99.8453 637.017 98.2027 638.041 96.752C639.065 95.3013 640.558 94.1707 642.521 93.36C644.526 92.5067 646.958 92.08 649.817 92.08C651.993 92.08 654.169 92.3787 656.345 92.976C658.521 93.5307 660.313 94.2773 661.721 95.216L659.737 98.864C658.244 97.84 656.644 97.1147 654.937 96.688C653.23 96.2187 651.524 95.984 649.817 95.984C646.788 95.984 644.548 96.5173 643.097 97.584C641.689 98.608 640.985 99.9307 640.985 101.552C640.985 102.832 641.369 103.835 642.137 104.56C642.948 105.285 643.993 105.861 645.273 106.288C646.596 106.672 648.025 106.992 649.561 107.248C651.14 107.504 652.697 107.824 654.233 108.208C655.812 108.549 657.241 109.04 658.521 109.68C659.844 110.277 660.889 111.152 661.657 112.304C662.468 113.413 662.873 114.885 662.873 116.72C662.873 118.683 662.318 120.389 661.209 121.84C660.142 123.248 658.564 124.357 656.473 125.168C654.425 125.936 651.929 126.32 648.985 126.32ZM681.835 126.32C678.678 126.32 676.246 125.467 674.539 123.76C672.832 122.053 671.979 119.643 671.979 116.528V84.976H676.523V116.272C676.523 118.235 677.014 119.749 677.995 120.816C679.019 121.883 680.47 122.416 682.347 122.416C684.352 122.416 686.016 121.84 687.339 120.688L688.939 123.952C688.043 124.763 686.955 125.36 685.675 125.744C684.438 126.128 683.158 126.32 681.835 126.32ZM665.963 96.176V92.4H686.763V96.176H665.963ZM706.235 126.32C703.462 126.32 700.838 125.936 698.363 125.168C695.888 124.357 693.947 123.355 692.539 122.16L694.587 118.576C695.952 119.6 697.702 120.496 699.835 121.264C701.968 121.989 704.208 122.352 706.555 122.352C709.755 122.352 712.059 121.861 713.467 120.88C714.875 119.856 715.579 118.512 715.579 116.848C715.579 115.611 715.174 114.651 714.363 113.968C713.595 113.243 712.571 112.709 711.291 112.368C710.011 111.984 708.582 111.664 707.003 111.408C705.424 111.152 703.846 110.853 702.267 110.512C700.731 110.171 699.323 109.68 698.043 109.04C696.763 108.357 695.718 107.44 694.907 106.288C694.139 105.136 693.755 103.6 693.755 101.68C693.755 99.8453 694.267 98.2027 695.291 96.752C696.315 95.3013 697.808 94.1707 699.771 93.36C701.776 92.5067 704.208 92.08 707.067 92.08C709.243 92.08 711.419 92.3787 713.595 92.976C715.771 93.5307 717.563 94.2773 718.971 95.216L716.987 98.864C715.494 97.84 713.894 97.1147 712.187 96.688C710.48 96.2187 708.774 95.984 707.067 95.984C704.038 95.984 701.798 96.5173 700.347 97.584C698.939 98.608 698.235 99.9307 698.235 101.552C698.235 102.832 698.619 103.835 699.387 104.56C700.198 105.285 701.243 105.861 702.523 106.288C703.846 106.672 705.275 106.992 706.811 107.248C708.39 107.504 709.947 107.824 711.483 108.208C713.062 108.549 714.491 109.04 715.771 109.68C717.094 110.277 718.139 111.152 718.907 112.304C719.718 113.413 720.123 114.885 720.123 116.72C720.123 118.683 719.568 120.389 718.459 121.84C717.392 123.248 715.814 124.357 713.723 125.168C711.675 125.936 709.179 126.32 706.235 126.32Z" fill="white"/>
</svg>
